<mxfile host="app.diagrams.net" agent="Mozilla/5.0 (Windows NT 10.0; Win64; x64) AppleWebKit/537.36 (KHTML, like Gecko) Chrome/129.0.0.0 Safari/537.36" version="24.7.16">
  <diagram name="Page-1" id="WHCCmrVvB5THiJJlSncc">
    <mxGraphModel dx="2343" dy="885" grid="1" gridSize="10" guides="1" tooltips="1" connect="1" arrows="1" fold="1" page="1" pageScale="1" pageWidth="850" pageHeight="1100" math="0" shadow="0">
      <root>
        <mxCell id="0" />
        <mxCell id="1" parent="0" />
        <mxCell id="TdPJML_I5EtJl2JKsx4j-3" value="&lt;font style=&quot;font-size: 18px;&quot;&gt;led_patterns_avalon&lt;/font&gt;" style="rounded=1;whiteSpace=wrap;html=1;fillColor=#fff2cc;strokeColor=#d6b656;labelPosition=center;verticalLabelPosition=top;align=center;verticalAlign=bottom;" vertex="1" parent="1">
          <mxGeometry x="190" y="680" width="1170" height="800" as="geometry" />
        </mxCell>
        <mxCell id="AjPuptiS9pJGdmlPftFr-1" value="&lt;font style=&quot;font-size: 19px;&quot;&gt;led_patterns&amp;nbsp;&lt;/font&gt;" style="rounded=1;whiteSpace=wrap;html=1;fillColor=#d5e8d4;strokeColor=#82b366;verticalAlign=bottom;labelPosition=center;verticalLabelPosition=top;align=center;" parent="1" vertex="1">
          <mxGeometry x="420" y="950" width="820" height="490" as="geometry" />
        </mxCell>
        <mxCell id="AjPuptiS9pJGdmlPftFr-2" value="" style="endArrow=classic;html=1;rounded=0;entryX=0;entryY=0.5;entryDx=0;entryDy=0;edgeStyle=orthogonalEdgeStyle;" parent="1" target="Qu9D1ujddN_G9U_l-ylP-2" edge="1">
          <mxGeometry width="50" height="50" relative="1" as="geometry">
            <mxPoint x="50" y="1050" as="sourcePoint" />
            <mxPoint x="560" y="1047" as="targetPoint" />
            <Array as="points">
              <mxPoint x="100" y="1050" />
              <mxPoint x="100" y="1050" />
            </Array>
          </mxGeometry>
        </mxCell>
        <mxCell id="AjPuptiS9pJGdmlPftFr-3" value="&lt;span style=&quot;font-size: 19px;&quot;&gt;System Clock&lt;/span&gt;" style="edgeLabel;html=1;align=center;verticalAlign=middle;resizable=0;points=[];" parent="AjPuptiS9pJGdmlPftFr-2" vertex="1" connectable="0">
          <mxGeometry x="-0.5139" relative="1" as="geometry">
            <mxPoint x="-196" as="offset" />
          </mxGeometry>
        </mxCell>
        <mxCell id="AjPuptiS9pJGdmlPftFr-5" value="" style="endArrow=classic;html=1;rounded=0;entryX=0;entryY=0.5;entryDx=0;entryDy=0;edgeStyle=orthogonalEdgeStyle;" parent="1" target="Qu9D1ujddN_G9U_l-ylP-11" edge="1">
          <mxGeometry width="50" height="50" relative="1" as="geometry">
            <mxPoint x="10" y="1190" as="sourcePoint" />
            <mxPoint x="480" y="1210" as="targetPoint" />
            <Array as="points">
              <mxPoint x="650" y="1200" />
              <mxPoint x="650" y="1133" />
            </Array>
          </mxGeometry>
        </mxCell>
        <mxCell id="Qu9D1ujddN_G9U_l-ylP-19" value="&lt;font style=&quot;font-size: 14px;&quot;&gt;Switches&lt;/font&gt;" style="edgeLabel;html=1;align=center;verticalAlign=middle;resizable=0;points=[];" parent="AjPuptiS9pJGdmlPftFr-5" vertex="1" connectable="0">
          <mxGeometry x="-0.5966" y="-2" relative="1" as="geometry">
            <mxPoint x="-181" y="-7" as="offset" />
          </mxGeometry>
        </mxCell>
        <mxCell id="Qu9D1ujddN_G9U_l-ylP-16" style="edgeStyle=orthogonalEdgeStyle;rounded=0;orthogonalLoop=1;jettySize=auto;html=1;exitX=1;exitY=0.5;exitDx=0;exitDy=0;entryX=0;entryY=0.5;entryDx=0;entryDy=0;" parent="1" source="Qu9D1ujddN_G9U_l-ylP-2" target="Qu9D1ujddN_G9U_l-ylP-11" edge="1">
          <mxGeometry relative="1" as="geometry">
            <Array as="points">
              <mxPoint x="710" y="1050" />
              <mxPoint x="710" y="1100" />
              <mxPoint x="709" y="1100" />
              <mxPoint x="709" y="1133" />
            </Array>
          </mxGeometry>
        </mxCell>
        <mxCell id="Qu9D1ujddN_G9U_l-ylP-2" value="Internal clock Divider" style="rounded=1;whiteSpace=wrap;html=1;fillColor=#ffe6cc;strokeColor=#d79b00;" parent="1" vertex="1">
          <mxGeometry x="570" y="1020" width="120" height="60" as="geometry" />
        </mxCell>
        <mxCell id="Qu9D1ujddN_G9U_l-ylP-15" value="" style="group;horizontal=0;fontSize=15;labelPosition=center;verticalLabelPosition=top;align=center;verticalAlign=bottom;" parent="1" vertex="1" connectable="0">
          <mxGeometry x="728.75" y="1000" width="192.5" height="265" as="geometry" />
        </mxCell>
        <mxCell id="Qu9D1ujddN_G9U_l-ylP-11" value="&lt;font style=&quot;font-size: 14px;&quot;&gt;Pattern Generation Process&lt;/font&gt;" style="rounded=1;whiteSpace=wrap;html=1;fillColor=#dae8fc;strokeColor=#6c8ebf;labelPosition=center;verticalLabelPosition=top;align=center;verticalAlign=bottom;" parent="Qu9D1ujddN_G9U_l-ylP-15" vertex="1">
          <mxGeometry width="192.5" height="265" as="geometry" />
        </mxCell>
        <mxCell id="Qu9D1ujddN_G9U_l-ylP-5" value="Generate Pattern 0" style="rounded=1;whiteSpace=wrap;html=1;fillColor=#fff2cc;strokeColor=#d6b656;" parent="Qu9D1ujddN_G9U_l-ylP-15" vertex="1">
          <mxGeometry x="36.25" y="12.5" width="120" height="40" as="geometry" />
        </mxCell>
        <mxCell id="Qu9D1ujddN_G9U_l-ylP-6" value="Generate Pattern 1" style="rounded=1;whiteSpace=wrap;html=1;fillColor=#fff2cc;strokeColor=#d6b656;" parent="Qu9D1ujddN_G9U_l-ylP-15" vertex="1">
          <mxGeometry x="36.25" y="62.5" width="120" height="40" as="geometry" />
        </mxCell>
        <mxCell id="Qu9D1ujddN_G9U_l-ylP-8" value="Generate Pattern 3" style="rounded=1;whiteSpace=wrap;html=1;fillColor=#fff2cc;strokeColor=#d6b656;" parent="Qu9D1ujddN_G9U_l-ylP-15" vertex="1">
          <mxGeometry x="36.25" y="162.5" width="120" height="40" as="geometry" />
        </mxCell>
        <mxCell id="Qu9D1ujddN_G9U_l-ylP-9" value="Generate Pattern 2" style="rounded=1;whiteSpace=wrap;html=1;fillColor=#fff2cc;strokeColor=#d6b656;" parent="Qu9D1ujddN_G9U_l-ylP-15" vertex="1">
          <mxGeometry x="36.25" y="112.5" width="120" height="40" as="geometry" />
        </mxCell>
        <mxCell id="Qu9D1ujddN_G9U_l-ylP-10" value="Generate Pattern 4" style="rounded=1;whiteSpace=wrap;html=1;fillColor=#fff2cc;strokeColor=#d6b656;" parent="Qu9D1ujddN_G9U_l-ylP-15" vertex="1">
          <mxGeometry x="36.25" y="212.5" width="120" height="40" as="geometry" />
        </mxCell>
        <mxCell id="Qu9D1ujddN_G9U_l-ylP-23" style="edgeStyle=orthogonalEdgeStyle;rounded=0;orthogonalLoop=1;jettySize=auto;html=1;exitX=0;exitY=0.5;exitDx=0;exitDy=0;entryX=0;entryY=0.5;entryDx=0;entryDy=0;" parent="1" source="Qu9D1ujddN_G9U_l-ylP-18" target="Qu9D1ujddN_G9U_l-ylP-20" edge="1">
          <mxGeometry relative="1" as="geometry" />
        </mxCell>
        <mxCell id="Qu9D1ujddN_G9U_l-ylP-18" value="Async Conditioner" style="rounded=1;whiteSpace=wrap;html=1;fillColor=#f8cecc;strokeColor=#b85450;labelPosition=center;verticalLabelPosition=top;align=center;verticalAlign=bottom;fontSize=14;" parent="1" vertex="1">
          <mxGeometry x="570" y="1320" width="440" height="80" as="geometry" />
        </mxCell>
        <mxCell id="Qu9D1ujddN_G9U_l-ylP-24" style="edgeStyle=orthogonalEdgeStyle;rounded=0;orthogonalLoop=1;jettySize=auto;html=1;exitX=1;exitY=0.5;exitDx=0;exitDy=0;entryX=0;entryY=0.5;entryDx=0;entryDy=0;" parent="1" source="Qu9D1ujddN_G9U_l-ylP-20" target="Qu9D1ujddN_G9U_l-ylP-21" edge="1">
          <mxGeometry relative="1" as="geometry" />
        </mxCell>
        <mxCell id="Qu9D1ujddN_G9U_l-ylP-20" value="Synchronizer" style="rounded=1;whiteSpace=wrap;html=1;fillColor=#dae8fc;strokeColor=#6c8ebf;" parent="1" vertex="1">
          <mxGeometry x="585" y="1335" width="120" height="50" as="geometry" />
        </mxCell>
        <mxCell id="Qu9D1ujddN_G9U_l-ylP-25" style="edgeStyle=orthogonalEdgeStyle;rounded=0;orthogonalLoop=1;jettySize=auto;html=1;exitX=1;exitY=0.5;exitDx=0;exitDy=0;entryX=0;entryY=0.5;entryDx=0;entryDy=0;" parent="1" source="Qu9D1ujddN_G9U_l-ylP-21" target="Qu9D1ujddN_G9U_l-ylP-22" edge="1">
          <mxGeometry relative="1" as="geometry" />
        </mxCell>
        <mxCell id="Qu9D1ujddN_G9U_l-ylP-21" value="Debouncer" style="rounded=1;whiteSpace=wrap;html=1;fillColor=#dae8fc;strokeColor=#6c8ebf;" parent="1" vertex="1">
          <mxGeometry x="728.75" y="1335" width="120" height="50" as="geometry" />
        </mxCell>
        <mxCell id="Qu9D1ujddN_G9U_l-ylP-26" style="edgeStyle=orthogonalEdgeStyle;rounded=0;orthogonalLoop=1;jettySize=auto;html=1;exitX=1;exitY=0.5;exitDx=0;exitDy=0;entryX=0;entryY=0.75;entryDx=0;entryDy=0;" parent="1" source="Qu9D1ujddN_G9U_l-ylP-22" target="Qu9D1ujddN_G9U_l-ylP-28" edge="1">
          <mxGeometry relative="1" as="geometry">
            <Array as="points">
              <mxPoint x="1040" y="1360" />
              <mxPoint x="1040" y="1218" />
              <mxPoint x="1090" y="1218" />
            </Array>
          </mxGeometry>
        </mxCell>
        <mxCell id="Qu9D1ujddN_G9U_l-ylP-22" value="One_pulse" style="rounded=1;whiteSpace=wrap;html=1;fillColor=#dae8fc;strokeColor=#6c8ebf;" parent="1" vertex="1">
          <mxGeometry x="870" y="1335" width="120" height="50" as="geometry" />
        </mxCell>
        <mxCell id="AjPuptiS9pJGdmlPftFr-8" value="" style="endArrow=classic;html=1;rounded=0;edgeStyle=orthogonalEdgeStyle;entryX=0;entryY=0.5;entryDx=0;entryDy=0;" parent="1" target="Qu9D1ujddN_G9U_l-ylP-20" edge="1">
          <mxGeometry width="50" height="50" relative="1" as="geometry">
            <mxPoint x="30" y="1360" as="sourcePoint" />
            <mxPoint x="570" y="1450" as="targetPoint" />
            <Array as="points" />
          </mxGeometry>
        </mxCell>
        <mxCell id="AjPuptiS9pJGdmlPftFr-9" value="&lt;font style=&quot;font-size: 19px;&quot;&gt;Push Button&lt;/font&gt;" style="edgeLabel;html=1;align=center;verticalAlign=middle;resizable=0;points=[];" parent="AjPuptiS9pJGdmlPftFr-8" vertex="1" connectable="0">
          <mxGeometry x="-0.9741" y="1" relative="1" as="geometry">
            <mxPoint x="-87" y="1" as="offset" />
          </mxGeometry>
        </mxCell>
        <mxCell id="Qu9D1ujddN_G9U_l-ylP-30" style="edgeStyle=orthogonalEdgeStyle;rounded=0;orthogonalLoop=1;jettySize=auto;html=1;exitX=1;exitY=0.5;exitDx=0;exitDy=0;" parent="1" edge="1">
          <mxGeometry relative="1" as="geometry">
            <mxPoint x="1480" y="1195" as="targetPoint" />
            <mxPoint x="1210" y="1194.74" as="sourcePoint" />
          </mxGeometry>
        </mxCell>
        <mxCell id="Qu9D1ujddN_G9U_l-ylP-31" value="LED Pattern" style="edgeLabel;html=1;align=center;verticalAlign=middle;resizable=0;points=[];" parent="Qu9D1ujddN_G9U_l-ylP-30" vertex="1" connectable="0">
          <mxGeometry x="0.5696" y="2" relative="1" as="geometry">
            <mxPoint x="28" y="-11" as="offset" />
          </mxGeometry>
        </mxCell>
        <mxCell id="Qu9D1ujddN_G9U_l-ylP-28" value="Output Process" style="rounded=1;whiteSpace=wrap;html=1;fillColor=#e1d5e7;strokeColor=#9673a6;" parent="1" vertex="1">
          <mxGeometry x="1090" y="1150" width="120" height="90" as="geometry" />
        </mxCell>
        <mxCell id="Qu9D1ujddN_G9U_l-ylP-29" style="edgeStyle=orthogonalEdgeStyle;rounded=0;orthogonalLoop=1;jettySize=auto;html=1;exitX=1;exitY=0.5;exitDx=0;exitDy=0;entryX=0;entryY=0.25;entryDx=0;entryDy=0;" parent="1" source="Qu9D1ujddN_G9U_l-ylP-11" target="Qu9D1ujddN_G9U_l-ylP-28" edge="1">
          <mxGeometry relative="1" as="geometry" />
        </mxCell>
        <mxCell id="TdPJML_I5EtJl2JKsx4j-6" style="edgeStyle=orthogonalEdgeStyle;rounded=0;orthogonalLoop=1;jettySize=auto;html=1;exitX=1;exitY=0.5;exitDx=0;exitDy=0;" edge="1" parent="1" source="TdPJML_I5EtJl2JKsx4j-5">
          <mxGeometry relative="1" as="geometry">
            <mxPoint x="1530" y="820" as="targetPoint" />
          </mxGeometry>
        </mxCell>
        <mxCell id="TdPJML_I5EtJl2JKsx4j-7" value="AVS_READ_Data" style="edgeLabel;html=1;align=center;verticalAlign=middle;resizable=0;points=[];fontSize=14;labelBackgroundColor=none;" vertex="1" connectable="0" parent="TdPJML_I5EtJl2JKsx4j-6">
          <mxGeometry x="0.0892" y="4" relative="1" as="geometry">
            <mxPoint x="-17" y="-6" as="offset" />
          </mxGeometry>
        </mxCell>
        <mxCell id="TdPJML_I5EtJl2JKsx4j-14" style="edgeStyle=orthogonalEdgeStyle;rounded=0;orthogonalLoop=1;jettySize=auto;html=1;exitX=0.5;exitY=1;exitDx=0;exitDy=0;entryX=0.25;entryY=0;entryDx=0;entryDy=0;" edge="1" parent="1" source="TdPJML_I5EtJl2JKsx4j-11" target="AjPuptiS9pJGdmlPftFr-1">
          <mxGeometry relative="1" as="geometry" />
        </mxCell>
        <mxCell id="TdPJML_I5EtJl2JKsx4j-11" value="&lt;span style=&quot;font-size: 17px; text-wrap: nowrap;&quot;&gt;LED Control_reg,&lt;/span&gt;&lt;div style=&quot;font-size: 17px; text-wrap: nowrap;&quot;&gt;Base_period_reg,&lt;/div&gt;&lt;div style=&quot;font-size: 17px; text-wrap: nowrap;&quot;&gt;led_reg&lt;/div&gt;" style="rounded=1;whiteSpace=wrap;html=1;fillColor=#e1d5e7;strokeColor=#9673a6;fontColor=default;labelBackgroundColor=none;" vertex="1" parent="1">
          <mxGeometry x="570" y="760" width="230" height="110" as="geometry" />
        </mxCell>
        <mxCell id="TdPJML_I5EtJl2JKsx4j-9" style="edgeStyle=orthogonalEdgeStyle;rounded=0;orthogonalLoop=1;jettySize=auto;html=1;exitX=0;exitY=0.5;exitDx=0;exitDy=0;startArrow=classic;startFill=1;endArrow=none;endFill=0;" edge="1" parent="1" source="TdPJML_I5EtJl2JKsx4j-5">
          <mxGeometry relative="1" as="geometry">
            <mxPoint x="800" y="820" as="targetPoint" />
          </mxGeometry>
        </mxCell>
        <mxCell id="TdPJML_I5EtJl2JKsx4j-5" value="&lt;font style=&quot;font-size: 14px;&quot;&gt;Register Read Process&amp;nbsp;&lt;/font&gt;" style="rounded=1;whiteSpace=wrap;html=1;fillColor=#dae8fc;strokeColor=#6c8ebf;" vertex="1" parent="1">
          <mxGeometry x="1010" y="790" width="120" height="60" as="geometry" />
        </mxCell>
        <mxCell id="TdPJML_I5EtJl2JKsx4j-17" style="edgeStyle=orthogonalEdgeStyle;rounded=0;orthogonalLoop=1;jettySize=auto;html=1;exitX=1;exitY=0.5;exitDx=0;exitDy=0;" edge="1" parent="1" source="TdPJML_I5EtJl2JKsx4j-15" target="TdPJML_I5EtJl2JKsx4j-11">
          <mxGeometry relative="1" as="geometry" />
        </mxCell>
        <mxCell id="TdPJML_I5EtJl2JKsx4j-15" value="&lt;font style=&quot;font-size: 14px;&quot;&gt;Register Write Process&amp;nbsp;&lt;/font&gt;" style="rounded=1;whiteSpace=wrap;html=1;fillColor=#dae8fc;strokeColor=#6c8ebf;" vertex="1" parent="1">
          <mxGeometry x="330" y="785" width="120" height="60" as="geometry" />
        </mxCell>
        <mxCell id="TdPJML_I5EtJl2JKsx4j-18" value="" style="endArrow=classic;html=1;rounded=0;entryX=0;entryY=0.5;entryDx=0;entryDy=0;edgeStyle=orthogonalEdgeStyle;" edge="1" parent="1" target="TdPJML_I5EtJl2JKsx4j-15">
          <mxGeometry width="50" height="50" relative="1" as="geometry">
            <mxPoint x="25" y="815" as="sourcePoint" />
            <mxPoint x="240" y="814.38" as="targetPoint" />
            <Array as="points" />
          </mxGeometry>
        </mxCell>
        <mxCell id="TdPJML_I5EtJl2JKsx4j-19" value="&lt;span style=&quot;font-size: 19px;&quot;&gt;avs_write_data,&lt;/span&gt;&lt;div&gt;&lt;span style=&quot;font-size: 19px;&quot;&gt;avs_address&lt;/span&gt;&lt;/div&gt;" style="edgeLabel;html=1;align=center;verticalAlign=middle;resizable=0;points=[];" vertex="1" connectable="0" parent="TdPJML_I5EtJl2JKsx4j-18">
          <mxGeometry x="-0.5139" relative="1" as="geometry">
            <mxPoint x="-129" as="offset" />
          </mxGeometry>
        </mxCell>
      </root>
    </mxGraphModel>
  </diagram>
</mxfile>
